<svg width="204" height="108" viewBox="0 0 204 108" fill="none" xmlns="http://www.w3.org/2000/svg">
<path d="M25.802 67.082C27.5498 67.082 28.7983 68.4128 28.7983 69.993C28.7983 71.6564 27.5498 72.8208 25.802 72.8208C23.9709 72.8208 22.8057 71.5732 22.8057 69.993C22.8889 68.3296 24.0541 67.082 25.802 67.082Z" fill="white"/>
<path d="M127.26 67.082C129.008 67.082 130.256 68.4128 130.256 69.993C130.256 71.6564 129.008 72.8208 127.26 72.8208C125.429 72.8208 124.264 71.5732 124.264 69.993C124.264 68.3296 125.512 67.082 127.26 67.082Z" fill="white"/>
<path d="M186.105 75.5664C178.698 75.5664 174.869 80.3903 174.869 88.0419C174.869 94.1965 177.283 98.5214 183.359 98.5214C185.772 98.5214 187.936 97.6065 189.268 95.6104V97.9392H191.349H193.763V93.7807V90.537V77.0635C190.766 75.8991 187.604 75.5664 186.105 75.5664ZM188.769 91.036C188.769 92.8658 187.187 94.7787 184.524 94.7787C180.862 94.7787 180.029 91.3687 180.029 87.7924C180.029 83.1349 181.444 79.3091 185.523 79.3091C186.854 79.3091 188.103 79.5586 188.769 79.8912V91.036Z" fill="white"/>
<path d="M28.465 75.5664H23.3047V97.9392H28.465V75.5664Z" fill="white"/>
<path d="M200.671 77.4782C198.673 77.4782 197.425 76.1474 197.425 74.3177C197.425 72.488 198.757 71.1572 200.671 71.1572C202.585 71.1572 204 72.488 204 74.3177C204 76.1474 202.585 77.4782 200.671 77.4782ZM200.671 71.9058C199.256 71.9058 198.34 72.9038 198.34 74.3177C198.34 75.7316 199.339 76.7296 200.671 76.7296C202.086 76.7296 203.085 75.8148 203.085 74.3177C203.085 72.9038 202.086 71.9058 200.671 71.9058ZM202.169 75.9811H201.337L200.837 74.8167C200.754 74.6504 200.671 74.5672 200.588 74.5672H200.255V75.8979H199.506V72.488H200.754C201.42 72.488 201.919 72.7375 201.919 73.4028C201.919 73.9018 201.67 74.2345 201.337 74.3177C201.42 74.4009 201.503 74.484 201.586 74.5672L202.169 75.9811ZM200.588 74.0682C200.921 74.0682 201.17 73.9018 201.17 73.5692C201.17 73.2365 200.921 73.1533 200.588 73.1533H200.338V74.0682H200.588Z" fill="white"/>
<path d="M5.24357 97.938H0V69.1611H9.90452C16.2301 69.1611 20.142 72.1553 20.142 77.9772C20.142 84.5476 15.481 87.7912 8.90574 87.7912H5.24357V97.938ZM8.40635 83.6327C12.1518 83.6327 14.7319 82.302 14.7319 78.4762C14.7319 73.985 12.1518 73.3196 7.90697 73.3196H5.24357V83.6327H8.40635Z" fill="white"/>
<path d="M53.6005 75.4824C46.1929 75.4824 42.3643 80.3063 42.3643 87.9579C42.3643 94.1125 44.778 98.4374 50.8538 98.4374C53.1843 98.4374 55.4316 97.5225 56.7632 95.6096V97.9384H58.844H61.341V93.7799V92.2828V77.0627C58.1782 75.8983 55.0154 75.4824 53.6005 75.4824ZM56.1806 91.0352C56.1806 92.865 54.5992 94.7779 51.9358 94.7779C48.2737 94.7779 47.4414 91.3679 47.4414 87.7916C47.4414 83.1341 48.8563 79.3082 52.9346 79.3082C54.2663 79.3082 55.5148 79.5578 56.1806 79.8904V91.0352Z" fill="white"/>
<path d="M79.2363 92.5323L81.1507 96.0254C79.486 97.4393 76.8226 98.5205 73.6598 98.5205C67.3343 98.5205 63.5889 94.5284 63.5889 87.1262C63.5889 78.4765 68.9989 75.4824 73.5766 75.4824C76.4065 75.4824 79.486 76.6468 81.5668 79.5578L78.3208 82.2192C77.1556 80.8053 75.6574 79.5578 73.6598 79.5578C70.7468 79.5578 68.7492 81.9697 68.7492 86.8767C68.7492 91.3679 70.4138 94.362 74.2425 94.362C75.9071 94.4452 77.4885 93.863 79.2363 92.5323Z" fill="white"/>
<path d="M92.8026 75.4824C85.395 75.4824 81.5664 80.3063 81.5664 87.9579C81.5664 94.1125 83.9801 98.4374 90.056 98.4374C92.3865 98.4374 94.6337 97.5225 95.9654 95.6096V97.9384H98.0462H100.543V93.7799V91.1184V77.0627C97.3803 75.8983 94.2176 75.4824 92.8026 75.4824ZM95.3828 91.0352C95.3828 92.865 93.8014 94.7779 91.138 94.7779C87.4758 94.7779 86.6435 91.3679 86.6435 87.7916C86.6435 83.1341 88.0584 79.3082 92.1368 79.3082C93.4685 79.3082 94.7169 79.5578 95.3828 79.8904V91.0352Z" fill="white"/>
<path d="M154.061 67.9131H159.221V77.3945C160.469 76.2301 162.3 75.5647 164.298 75.5647C169.625 75.5647 172.871 79.3074 172.871 86.0442C172.871 94.4443 169.125 98.6029 162.633 98.6029C159.637 98.6029 155.808 97.7712 154.061 96.7731V67.9131ZM159.221 94.0285C160.053 94.4443 161.468 94.8602 162.883 94.8602C165.879 94.8602 167.794 92.5314 167.794 86.6264C167.794 83.2164 166.961 79.2242 162.966 79.2242C160.969 79.2242 159.221 80.5549 159.221 82.4679V94.0285Z" fill="white"/>
<path d="M114.693 75.4824C119.021 75.4824 121.601 77.8944 121.601 82.9677V97.8552H116.441V84.1321C116.441 81.4707 115.941 79.4746 113.195 79.4746H113.111H112.113H112.029C109.283 79.4746 108.783 81.4707 108.783 84.1321V97.8552H103.623V83.0509C103.623 77.9775 106.203 75.5656 110.531 75.5656H114.693V75.4824Z" fill="white"/>
<path d="M139.829 97.9392C135.501 97.9392 132.921 95.5273 132.921 90.4539V75.5664H138.081V89.2895C138.081 91.9509 138.581 93.947 141.327 93.947H141.41H142.409H142.492C145.239 93.947 145.739 91.9509 145.739 89.2895V75.5664H150.899V90.4539C150.899 95.5273 148.319 97.9392 143.991 97.9392H139.829Z" fill="white"/>
<path d="M42.365 75.4824H38.4531C34.1251 75.4824 31.5449 77.8944 31.5449 82.9677V97.8552H36.7053V84.1321C36.7053 81.4707 37.2046 79.4746 39.9513 79.4746H40.0345H41.0333H41.1165C41.6159 79.4746 41.9488 79.5578 42.365 79.6409V75.4824Z" fill="white"/>
<path d="M124.68 75.5664V98.6045C124.68 101.266 124.181 103.262 121.434 103.262H121.351H120.519V107.254H122.932C127.26 107.254 129.84 104.842 129.84 99.7689V75.5664H124.68Z" fill="white"/>
<path d="M111.862 38.1746C111.862 45.5767 105.869 51.4818 98.4618 51.4818C91.0542 51.4818 85.0615 45.4935 85.0615 38.1746C85.0615 30.7724 91.0542 24.7842 98.4618 24.7842C105.869 24.8673 111.862 30.8556 111.862 38.1746Z" fill="white"/>
<path d="M98.2126 55.3918C88.8907 55.3918 81.2334 47.8233 81.2334 38.5082C81.2334 29.9417 87.6422 22.8722 95.8821 21.791C95.7989 21.791 95.7989 21.791 95.7157 21.791C85.1453 21.791 76.4893 30.3575 76.4893 40.9201C76.4893 51.4828 85.0621 60.1325 95.7157 60.1325C106.286 60.1325 114.942 51.5659 114.942 40.9201C114.942 40.837 114.942 40.837 114.942 40.7538C113.86 49.0708 106.785 55.3918 98.2126 55.3918Z" fill="white"/>
<path d="M72.4938 40.7533C72.4938 28.2777 82.648 18.131 95.2159 18.131C107.201 18.131 116.939 27.3629 117.772 39.0899C117.855 38.2582 117.938 37.3433 117.938 36.4284C117.938 22.3727 106.535 11.0615 92.5525 11.0615C78.4864 11.0615 67.167 22.4558 67.167 36.4284C67.167 47.2405 73.992 56.4724 83.5636 60.1319C76.9051 56.1397 72.4938 48.9039 72.4938 40.7533Z" fill="white"/>
<path d="M96.6306 0C78.8191 0 64.3369 14.3884 64.3369 32.1868C64.3369 32.8522 64.3369 33.4344 64.4201 34.0998C65.3357 19.2123 77.7371 7.40214 92.8852 7.40214C108.699 7.40214 121.434 20.2103 121.434 35.9295C121.434 51.0665 109.615 63.4588 94.6331 64.3737C95.2989 64.3737 95.8815 64.4569 96.5474 64.4569C114.359 64.4569 128.841 50.0684 128.841 32.27C128.841 14.3884 114.442 0 96.6306 0Z" fill="white"/>
</svg>
